<svg width="48" height="48" viewBox="0 0 48 48" fill="none" xmlns="http://www.w3.org/2000/svg">
<g filter="url(#filter0_b_282_452)">
<rect width="48" height="48" rx="24" fill="#25D366"/>
<rect x="0.5" y="0.5" width="47" height="47" rx="23.5" stroke="#D9D9D9"/>
<g clip-path="url(#clip0_282_452)">
<path fill-rule="evenodd" clip-rule="evenodd" d="M31.0859 16.9042C29.2061 15.0323 26.7059 14.0009 24.042 14C18.5528 14 14.0855 18.4422 14.0836 23.9025C14.0826 25.648 14.5415 27.3518 15.4129 28.8533L14 33.9854L19.2791 32.6083C20.7335 33.3976 22.3713 33.813 24.0377 33.8135H24.042C29.5302 33.8135 33.9981 29.3708 34 23.9106C34.0009 21.2643 32.9662 18.7765 31.0859 16.9046V16.9042ZM24.042 32.1411H24.0387C22.5537 32.1407 21.0969 31.7436 19.8258 30.9939L19.5236 30.8154L16.3908 31.6325L17.2269 28.5949L17.0301 28.2834C16.2017 26.9729 15.7638 25.4581 15.7648 23.903C15.7667 19.3648 19.4796 15.6724 24.0454 15.6724C26.2561 15.6734 28.3342 16.5305 29.8969 18.0865C31.4598 19.6422 32.3197 21.7106 32.3188 23.9096C32.3168 28.4482 28.6039 32.1407 24.042 32.1407V32.1411ZM28.5819 25.9766C28.3332 25.8527 27.1099 25.2544 26.8816 25.1718C26.6534 25.0891 26.4877 25.0478 26.322 25.2957C26.1563 25.5436 25.6793 26.1011 25.5342 26.2658C25.389 26.4311 25.2438 26.4515 24.9951 26.3275C24.7463 26.2036 23.9446 25.9424 22.9939 25.0996C22.2543 24.4433 21.7548 23.6333 21.6097 23.3854C21.4646 23.1375 21.5944 23.0036 21.7186 22.8806C21.8303 22.7695 21.9673 22.5914 22.0919 22.4471C22.2166 22.3027 22.2577 22.1992 22.3407 22.0344C22.4238 21.8692 22.3823 21.7249 22.3202 21.6009C22.2581 21.477 21.7606 20.259 21.5529 19.7637C21.3509 19.2813 21.1456 19.3468 20.9933 19.3387C20.8481 19.3316 20.6824 19.3302 20.5163 19.3302C20.3501 19.3302 20.0808 19.3919 19.8526 19.6398C19.6243 19.8876 18.9816 20.4864 18.9816 21.7039C18.9816 22.9214 19.8731 24.0986 19.9977 24.2639C20.1223 24.4291 21.7524 26.9282 24.2483 28.0004C24.8418 28.2554 25.3054 28.4078 25.6669 28.5218C26.2628 28.7103 26.8052 28.6838 27.234 28.6201C27.712 28.5489 28.7061 28.0213 28.9133 27.4434C29.1206 26.8655 29.1206 26.3698 29.0585 26.2667C28.9964 26.1637 28.8303 26.1015 28.5815 25.9776L28.5819 25.9766Z" fill="white"/>
</g>
</g>
<defs>
<filter id="filter0_b_282_452" x="-4" y="-4" width="56" height="56" filterUnits="userSpaceOnUse" color-interpolation-filters="sRGB">
<feFlood flood-opacity="0" result="BackgroundImageFix"/>
<feGaussianBlur in="BackgroundImageFix" stdDeviation="2"/>
<feComposite in2="SourceAlpha" operator="in" result="effect1_backgroundBlur_282_452"/>
<feBlend mode="normal" in="SourceGraphic" in2="effect1_backgroundBlur_282_452" result="shape"/>
</filter>
<clipPath id="clip0_282_452">
<rect width="20" height="20" fill="white" transform="translate(14 14)"/>
</clipPath>
</defs>
</svg>
